# xmcd
#
# Track frame offsets:
#	150
#	13348
#	26395
#	39496
#	51553
#	65235
#	74241
#	85643
#	92965
#	106550
#
# Disc length: 1492 seconds
#
# Revision: 0
# Processed by: cddbd v1.4PL0 Copyright (c) Steve Scherf et al.
# Submitted via: dBpowerAMP V4.0
#
DISCID=8a05d20a
DTITLE=Jane Bond - volume 1
DYEAR=2001
DGENRE=
TTITLE0=Smack Dab
TTITLE1=Get Him Off My Mind
TTITLE2=Rescue Me
TTITLE3=Empty Bottles
TTITLE4=Cheatin' Song
TTITLE5=Knockin' Down Windows
TTITLE6=Keep It Burnin'
TTITLE7=The Situation
TTITLE8=You've Got to Gimme Some
TTITLE9=Rigged
EXTD=
EXTT0=
EXTT1=
EXTT2=
EXTT3=
EXTT4=
EXTT5=
EXTT6=
EXTT7=
EXTT8=
EXTT9=
PLAYORDER=
